<mxfile host="Electron" modified="2024-01-13T15:11:17.870Z" agent="Mozilla/5.0 (Windows NT 10.0; Win64; x64) AppleWebKit/537.36 (KHTML, like Gecko) draw.io/22.1.11 Chrome/114.0.5735.289 Electron/25.9.8 Safari/537.36" etag="MDQgyTwpclg2v-cKpGXi" version="22.1.11" type="device">
  <diagram name="第 1 页" id="TJel7M7ZBi14pkKE39m5">
    <mxGraphModel dx="794" dy="519" grid="1" gridSize="10" guides="1" tooltips="1" connect="1" arrows="1" fold="1" page="1" pageScale="1" pageWidth="827" pageHeight="1169" math="0" shadow="0">
      <root>
        <mxCell id="0" />
        <mxCell id="1" parent="0" />
        <mxCell id="oviPMDwPEHUmanyv1Q1v-3" value="" style="group" vertex="1" connectable="0" parent="1">
          <mxGeometry x="40" y="80" width="400" height="400" as="geometry" />
        </mxCell>
        <mxCell id="oviPMDwPEHUmanyv1Q1v-1" value="" style="ellipse;whiteSpace=wrap;html=1;aspect=fixed;fillColor=none;" vertex="1" parent="oviPMDwPEHUmanyv1Q1v-3">
          <mxGeometry width="400" height="400" as="geometry" />
        </mxCell>
        <mxCell id="oviPMDwPEHUmanyv1Q1v-2" value="" style="ellipse;whiteSpace=wrap;html=1;aspect=fixed;fillColor=none;" vertex="1" parent="oviPMDwPEHUmanyv1Q1v-3">
          <mxGeometry x="60" y="60" width="280" height="280" as="geometry" />
        </mxCell>
        <mxCell id="oviPMDwPEHUmanyv1Q1v-7" value="&lt;b style=&quot;border-color: var(--border-color);&quot;&gt;&lt;font face=&quot;Comic Sans MS&quot; style=&quot;font-size: 48px;&quot;&gt;char&lt;/font&gt;&lt;/b&gt;" style="text;html=1;strokeColor=none;fillColor=none;align=center;verticalAlign=middle;whiteSpace=wrap;rounded=0;" vertex="1" parent="oviPMDwPEHUmanyv1Q1v-3">
          <mxGeometry x="170" y="185" width="60" height="30" as="geometry" />
        </mxCell>
        <mxCell id="oviPMDwPEHUmanyv1Q1v-11" value="" style="endArrow=none;html=1;rounded=0;exitX=0.5;exitY=1;exitDx=0;exitDy=0;entryX=0.5;entryY=1;entryDx=0;entryDy=0;" edge="1" parent="oviPMDwPEHUmanyv1Q1v-3" source="oviPMDwPEHUmanyv1Q1v-2" target="oviPMDwPEHUmanyv1Q1v-1">
          <mxGeometry width="50" height="50" relative="1" as="geometry">
            <mxPoint x="350" y="210" as="sourcePoint" />
            <mxPoint x="400" y="160" as="targetPoint" />
          </mxGeometry>
        </mxCell>
        <mxCell id="oviPMDwPEHUmanyv1Q1v-13" value="" style="endArrow=none;html=1;rounded=0;exitX=0.5;exitY=0;exitDx=0;exitDy=0;entryX=0.5;entryY=0;entryDx=0;entryDy=0;" edge="1" parent="oviPMDwPEHUmanyv1Q1v-3" source="oviPMDwPEHUmanyv1Q1v-2" target="oviPMDwPEHUmanyv1Q1v-1">
          <mxGeometry width="50" height="50" relative="1" as="geometry">
            <mxPoint x="350" y="210" as="sourcePoint" />
            <mxPoint x="400" y="160" as="targetPoint" />
          </mxGeometry>
        </mxCell>
        <mxCell id="oviPMDwPEHUmanyv1Q1v-29" value="" style="group;rotation=-10;" vertex="1" connectable="0" parent="oviPMDwPEHUmanyv1Q1v-3">
          <mxGeometry x="280" y="270" width="119" height="80" as="geometry" />
        </mxCell>
        <mxCell id="oviPMDwPEHUmanyv1Q1v-30" value="" style="curved=1;endArrow=classic;html=1;rounded=0;strokeWidth=10;" edge="1" parent="oviPMDwPEHUmanyv1Q1v-29">
          <mxGeometry width="50" height="50" relative="1" as="geometry">
            <mxPoint x="-8" y="91" as="sourcePoint" />
            <mxPoint x="92" y="-8" as="targetPoint" />
            <Array as="points">
              <mxPoint x="51" y="80" />
              <mxPoint x="92" y="-8" />
            </Array>
          </mxGeometry>
        </mxCell>
        <mxCell id="oviPMDwPEHUmanyv1Q1v-31" value="&lt;font face=&quot;Comic Sans MS&quot; style=&quot;font-size: 48px;&quot;&gt;&lt;b&gt;+&lt;/b&gt;&lt;/font&gt;" style="text;html=1;strokeColor=none;fillColor=none;align=center;verticalAlign=middle;whiteSpace=wrap;rounded=0;rotation=-10;" vertex="1" parent="oviPMDwPEHUmanyv1Q1v-29">
          <mxGeometry x="-1" y="23" width="60" height="30" as="geometry" />
        </mxCell>
        <mxCell id="oviPMDwPEHUmanyv1Q1v-33" value="&lt;font face=&quot;Comic Sans MS&quot; style=&quot;font-size: 48px;&quot;&gt;&lt;b&gt;0&lt;/b&gt;&lt;/font&gt;" style="text;html=1;strokeColor=none;fillColor=none;align=center;verticalAlign=middle;whiteSpace=wrap;rounded=0;rotation=-15;" vertex="1" parent="oviPMDwPEHUmanyv1Q1v-3">
          <mxGeometry x="200" y="350" width="60" height="30" as="geometry" />
        </mxCell>
        <mxCell id="oviPMDwPEHUmanyv1Q1v-45" value="&lt;font face=&quot;Comic Sans MS&quot; style=&quot;font-size: 48px;&quot;&gt;&lt;b&gt;127&lt;/b&gt;&lt;/font&gt;" style="text;html=1;strokeColor=none;fillColor=none;align=center;verticalAlign=middle;whiteSpace=wrap;rounded=0;rotation=15;" vertex="1" parent="oviPMDwPEHUmanyv1Q1v-3">
          <mxGeometry x="220" y="20" width="60" height="30" as="geometry" />
        </mxCell>
        <mxCell id="oviPMDwPEHUmanyv1Q1v-46" value="&lt;font face=&quot;Comic Sans MS&quot; style=&quot;font-size: 48px;&quot;&gt;&lt;b&gt;-128&lt;/b&gt;&lt;/font&gt;" style="text;html=1;strokeColor=none;fillColor=none;align=center;verticalAlign=middle;whiteSpace=wrap;rounded=0;rotation=-20;" vertex="1" parent="oviPMDwPEHUmanyv1Q1v-3">
          <mxGeometry x="110" y="30" width="60" height="30" as="geometry" />
        </mxCell>
        <mxCell id="oviPMDwPEHUmanyv1Q1v-47" value="&lt;font face=&quot;Comic Sans MS&quot; style=&quot;font-size: 48px;&quot;&gt;&lt;b&gt;-1&lt;/b&gt;&lt;/font&gt;" style="text;html=1;strokeColor=none;fillColor=none;align=center;verticalAlign=middle;whiteSpace=wrap;rounded=0;rotation=20;" vertex="1" parent="oviPMDwPEHUmanyv1Q1v-3">
          <mxGeometry x="130" y="340" width="60" height="30" as="geometry" />
        </mxCell>
        <mxCell id="oviPMDwPEHUmanyv1Q1v-59" value="" style="group;rotation=5;" vertex="1" connectable="0" parent="oviPMDwPEHUmanyv1Q1v-3">
          <mxGeometry x="50" y="297" width="71" height="53" as="geometry" />
        </mxCell>
        <mxCell id="oviPMDwPEHUmanyv1Q1v-60" value="&lt;font face=&quot;Comic Sans MS&quot; style=&quot;font-size: 48px;&quot;&gt;&lt;b&gt;-&lt;/b&gt;&lt;/font&gt;" style="text;html=1;strokeColor=none;fillColor=none;align=center;verticalAlign=middle;whiteSpace=wrap;rounded=0;rotation=-175;" vertex="1" parent="oviPMDwPEHUmanyv1Q1v-59">
          <mxGeometry x="1" width="60" height="30" as="geometry" />
        </mxCell>
        <mxCell id="oviPMDwPEHUmanyv1Q1v-61" value="" style="curved=1;endArrow=classic;html=1;rounded=0;strokeWidth=10;" edge="1" parent="oviPMDwPEHUmanyv1Q1v-59">
          <mxGeometry width="50" height="50" relative="1" as="geometry">
            <mxPoint x="69" y="56" as="sourcePoint" />
            <mxPoint x="-13" y="-52" as="targetPoint" />
            <Array as="points">
              <mxPoint x="69" y="56" />
              <mxPoint x="1" y="30" />
            </Array>
          </mxGeometry>
        </mxCell>
        <mxCell id="oviPMDwPEHUmanyv1Q1v-63" value="&lt;font face=&quot;Comic Sans MS&quot; style=&quot;font-size: 48px;&quot;&gt;&lt;b&gt;-&lt;/b&gt;&lt;/font&gt;" style="text;html=1;strokeColor=none;fillColor=none;align=center;verticalAlign=middle;whiteSpace=wrap;rounded=0;rotation=-175;" vertex="1" parent="oviPMDwPEHUmanyv1Q1v-3">
          <mxGeometry x="19" y="132" width="60" height="30" as="geometry" />
        </mxCell>
        <mxCell id="oviPMDwPEHUmanyv1Q1v-64" value="" style="curved=1;endArrow=classic;html=1;rounded=0;strokeWidth=10;" edge="1" parent="oviPMDwPEHUmanyv1Q1v-3">
          <mxGeometry width="50" height="50" relative="1" as="geometry">
            <mxPoint x="27" y="200" as="sourcePoint" />
            <mxPoint x="80" y="75" as="targetPoint" />
            <Array as="points">
              <mxPoint x="27" y="200" />
              <mxPoint x="15" y="129" />
            </Array>
          </mxGeometry>
        </mxCell>
        <mxCell id="oviPMDwPEHUmanyv1Q1v-25" value="" style="group;rotation=-5;" vertex="1" connectable="0" parent="1">
          <mxGeometry x="750" y="360" width="100" height="80" as="geometry" />
        </mxCell>
        <mxCell id="oviPMDwPEHUmanyv1Q1v-20" value="" style="curved=1;endArrow=classic;html=1;rounded=0;strokeWidth=10;" edge="1" parent="oviPMDwPEHUmanyv1Q1v-25">
          <mxGeometry width="50" height="50" relative="1" as="geometry">
            <mxPoint x="-12" y="86" as="sourcePoint" />
            <mxPoint x="96" y="-5" as="targetPoint" />
            <Array as="points">
              <mxPoint x="48" y="80" />
              <mxPoint x="96" y="-5" />
            </Array>
          </mxGeometry>
        </mxCell>
        <mxCell id="oviPMDwPEHUmanyv1Q1v-24" value="&lt;font face=&quot;Comic Sans MS&quot; style=&quot;font-size: 48px;&quot;&gt;&lt;b&gt;+&lt;/b&gt;&lt;/font&gt;" style="text;html=1;strokeColor=none;fillColor=none;align=center;verticalAlign=middle;whiteSpace=wrap;rounded=0;rotation=-5;" vertex="1" parent="oviPMDwPEHUmanyv1Q1v-25">
          <mxGeometry x="-1" y="21" width="60" height="30" as="geometry" />
        </mxCell>
        <mxCell id="oviPMDwPEHUmanyv1Q1v-55" value="" style="group;rotation=-87;" vertex="1" connectable="0" parent="1">
          <mxGeometry x="321" y="130" width="119" height="80" as="geometry" />
        </mxCell>
        <mxCell id="oviPMDwPEHUmanyv1Q1v-56" value="" style="curved=1;endArrow=classic;html=1;rounded=0;strokeWidth=10;" edge="1" parent="oviPMDwPEHUmanyv1Q1v-55">
          <mxGeometry width="50" height="50" relative="1" as="geometry">
            <mxPoint x="94" y="117" as="sourcePoint" />
            <mxPoint x="20" y="-2" as="targetPoint" />
            <Array as="points">
              <mxPoint x="97" y="57" />
              <mxPoint x="20" y="-2" />
            </Array>
          </mxGeometry>
        </mxCell>
        <mxCell id="oviPMDwPEHUmanyv1Q1v-57" value="&lt;font face=&quot;Comic Sans MS&quot; style=&quot;font-size: 48px;&quot;&gt;&lt;b&gt;+&lt;/b&gt;&lt;/font&gt;" style="text;html=1;strokeColor=none;fillColor=none;align=center;verticalAlign=middle;whiteSpace=wrap;rounded=0;rotation=30;" vertex="1" parent="oviPMDwPEHUmanyv1Q1v-55">
          <mxGeometry x="21" y="54" width="60" height="30" as="geometry" />
        </mxCell>
        <mxCell id="oviPMDwPEHUmanyv1Q1v-5" value="" style="ellipse;whiteSpace=wrap;html=1;aspect=fixed;fillColor=none;" vertex="1" parent="1">
          <mxGeometry x="480" y="80" width="400" height="400" as="geometry" />
        </mxCell>
        <mxCell id="oviPMDwPEHUmanyv1Q1v-6" value="" style="ellipse;whiteSpace=wrap;html=1;aspect=fixed;fillColor=none;" vertex="1" parent="1">
          <mxGeometry x="540" y="140" width="280" height="280" as="geometry" />
        </mxCell>
        <mxCell id="oviPMDwPEHUmanyv1Q1v-8" value="&lt;b style=&quot;border-color: var(--border-color);&quot;&gt;&lt;font face=&quot;Comic Sans MS&quot; style=&quot;font-size: 48px;&quot;&gt;unsigned&lt;/font&gt;&lt;/b&gt;" style="text;html=1;strokeColor=none;fillColor=none;align=center;verticalAlign=middle;whiteSpace=wrap;rounded=0;" vertex="1" parent="1">
          <mxGeometry x="650" y="260" width="60" height="30" as="geometry" />
        </mxCell>
        <mxCell id="oviPMDwPEHUmanyv1Q1v-16" value="" style="endArrow=none;html=1;rounded=0;exitX=0.5;exitY=1;exitDx=0;exitDy=0;entryX=0.5;entryY=1;entryDx=0;entryDy=0;" edge="1" parent="1" source="oviPMDwPEHUmanyv1Q1v-5" target="oviPMDwPEHUmanyv1Q1v-6">
          <mxGeometry width="50" height="50" relative="1" as="geometry">
            <mxPoint x="480" y="290" as="sourcePoint" />
            <mxPoint x="530" y="240" as="targetPoint" />
          </mxGeometry>
        </mxCell>
        <mxCell id="oviPMDwPEHUmanyv1Q1v-17" value="&lt;font face=&quot;Comic Sans MS&quot; style=&quot;font-size: 48px;&quot;&gt;&lt;b&gt;0&lt;/b&gt;&lt;/font&gt;" style="text;html=1;strokeColor=none;fillColor=none;align=center;verticalAlign=middle;whiteSpace=wrap;rounded=0;rotation=-15;" vertex="1" parent="1">
          <mxGeometry x="680" y="430" width="60" height="30" as="geometry" />
        </mxCell>
        <mxCell id="oviPMDwPEHUmanyv1Q1v-18" value="&lt;font face=&quot;Comic Sans MS&quot; style=&quot;font-size: 48px;&quot;&gt;&lt;b&gt;255&lt;/b&gt;&lt;/font&gt;" style="text;html=1;strokeColor=none;fillColor=none;align=center;verticalAlign=middle;whiteSpace=wrap;rounded=0;rotation=20;" vertex="1" parent="1">
          <mxGeometry x="600" y="420" width="60" height="30" as="geometry" />
        </mxCell>
        <mxCell id="oviPMDwPEHUmanyv1Q1v-58" value="" style="group;rotation=5;" vertex="1" connectable="0" parent="1">
          <mxGeometry x="520" y="360" width="71" height="53" as="geometry" />
        </mxCell>
        <mxCell id="oviPMDwPEHUmanyv1Q1v-26" value="&lt;font face=&quot;Comic Sans MS&quot; style=&quot;font-size: 48px;&quot;&gt;&lt;b&gt;-&lt;/b&gt;&lt;/font&gt;" style="text;html=1;strokeColor=none;fillColor=none;align=center;verticalAlign=middle;whiteSpace=wrap;rounded=0;rotation=-175;" vertex="1" parent="oviPMDwPEHUmanyv1Q1v-58">
          <mxGeometry x="1" width="60" height="30" as="geometry" />
        </mxCell>
        <mxCell id="oviPMDwPEHUmanyv1Q1v-21" value="" style="curved=1;endArrow=classic;html=1;rounded=0;strokeWidth=10;" edge="1" parent="oviPMDwPEHUmanyv1Q1v-58">
          <mxGeometry width="50" height="50" relative="1" as="geometry">
            <mxPoint x="69" y="56" as="sourcePoint" />
            <mxPoint x="-13" y="-52" as="targetPoint" />
            <Array as="points">
              <mxPoint x="69" y="56" />
              <mxPoint x="1" y="30" />
            </Array>
          </mxGeometry>
        </mxCell>
      </root>
    </mxGraphModel>
  </diagram>
</mxfile>
